<svg height="512pt" viewBox="0 -14 512.00018 512" width="512pt" xmlns="http://www.w3.org/2000/svg"><path d="m223.121094 471.265625-30.898438-75.898437c-.261718.433593-.570312.84375-.960937 1.191406l-13.507813 11.953125c-2.0625 1.820312-2.121094 4.867187-.136718 6.769531l8.773437 8.394531c1.988281 1.898438 3.105469 5.644531 2.480469 8.324219l-9.089844 39.027344c-.621094 2.679687-3.382812 4.871094-6.136719 4.871094h46.359375c2.753906 0 4.15625-2.085938 3.117188-4.632813zm0 0" fill="#003c72"/><path d="m191.261719 396.558594c2.058593-1.824219 2.371093-5.097656.691406-7.273438l-11.945313-15.503906v9.503906c0 5.503906-3.476562 7.144532-7.726562 3.652344l-17.746094-15.4375-.027344.820312 11.203126 98.085938-.039063.546875-48.851563-88.882813-.105468-.1875-5.8125 5.054688c-4.246094 3.492188-7.722656 1.851562-7.722656-3.648438v-26.03125l-21.9375-39.90625c-1.320313-2.410156-3.734376-2.570312-5.359376-.351562l-14.210937 19.394531c-1.625 2.21875-2.300781 6.183594-1.5 8.816407l16.296875 53.59375c.800781 2.628906 3.660156 5.222656 6.355469 5.761718l31.351562 6.277344c2.695313.539062 3.3125 2.574219 1.367188 4.519531l-18.992188 19.011719c-1.945312 1.945312-1.722656 4.867188.496094 6.492188l43.714844 32.074218c2.214843 1.625 6.277343 2.957032 9.03125 2.957032h13.59375c2.144531 0 3.320312-1.203126 3.109375-2.871094.992187 1.6875 2.847656 2.871094 4.839844 2.871094h2.3125c2.75 0 5.511718-2.191407 6.136718-4.871094l9.089844-39.027344c.621094-2.679688-.492188-6.425781-2.480469-8.324219l-8.773437-8.394531c-1.984375-1.902344-1.929688-4.949219.132812-6.769531zm0 0" fill="#0052ac"/><path d="m231.53125 214.839844c-12.804688-12.8125-21.949219-41.191406-21.949219-41.191406v-30.203126h-84.101562v75.0625h-18.976563l-1.726562-12.398437c-3.949219-3.839844-9.261719-6.191406-15.109375-6.191406-12.195313 0-22.078125 10.238281-22.078125 22.875 0 12.632812 9.882812 22.875 22.078125 22.875.769531 0 1.527343-.046875 2.277343-.125l-12.941406 38.160156v31.808594c.851563.171875 1.65625.769531 2.242188 1.839843l21.933594 39.910157v-26.972657c0-5.5 3.476562-7.140624 7.726562-3.648437l22.84375 19.703125c.707031-1.90625 2.53125-3.285156 4.675781-3.285156h8.226563c1.691406 0 3.1875.855468 4.09375 2.148437l8.742187-7.539062v-28.496094c3.652344.5625 7.253907.863281 10.765625.863281 44.816406 0 43.902344-36.609375 43.902344-36.609375v-34.785156c13.714844.914063 30.179688-10.984375 17.375-23.800781zm0 0" fill="#ffe2b8"/><path d="m154.382812 371.457031-3.609374-3.121093c-.902344 1.316406-2.414063 2.183593-4.121094 2.183593h-8.226563c-2.164062 0-4-1.402343-4.691406-3.335937l-16.917969 14.640625.003906.25 48.851563 88.878906.039063-.546875-11.199219-98.085938zm0 0" fill="#def9ff"/><path d="m140.761719 472.941406-43.714844-32.074218c-2.21875-1.625-2.441406-4.546876-.496094-6.492188l18.996094-19.015625c1.941406-1.941406 1.328125-3.976563-1.367187-4.515625l-31.351563-6.277344c-2.695313-.539062-5.558594-3.132812-6.359375-5.765625l-16.292969-53.589843c-.058593-.183594-.089843-.390626-.132812-.585938-13.410157 13.578125-35.164063 41.296875-35.164063 78.183594v47.957031c0 2.835937 2.296875 5.132813 5.132813 5.132813h113.964843c.792969 0 1.558594-.191407 2.25-.53125-2.035156-.535157-4.097656-1.425782-5.464843-2.425782zm0 0" fill="#003c72"/><path d="m45.777344 470.765625v-47.957031c0-24.390625 9.515625-44.769532 19.835937-59.703125l-5.4375-17.894531c-.058593-.1875-.089843-.390626-.132812-.585938-13.410157 13.578125-35.164063 41.296875-35.164063 78.183594v47.957031c0 2.832031 2.296875 5.132813 5.128906 5.132813h20.902344c-2.835937 0-5.132812-2.300782-5.132812-5.132813zm0 0" fill="#002d4f"/><path d="m225.171875 82.113281-39.34375 7.324219h-86.867187s-91.460938-1.164062-91.460938 83.039062c0 74.445313 71.503906 111.222657 71.503906 111.222657l12.941406-38.15625c-.75.078125-1.507812.125-2.277343.125-12.195313 0-22.078125-10.242188-22.078125-22.878907 0-12.632812 9.882812-22.875 22.078125-22.875 5.847656 0 11.160156 2.351563 15.109375 6.191407l1.726562 12.398437h18.976563v-75.0625h84.101562s30.226563-21.96875 15.589844-61.328125zm0 0" fill="#b57a4e"/><path d="m28.335938 193.476562c0-84.199218 91.460937-83.039062 91.460937-83.039062h86.867187l22.40625-4.171875c.4375-7.109375-.5625-15.175781-3.898437-24.152344l-39.34375 7.324219h-86.867187s-91.460938-1.164062-91.460938 83.039062c0 46.050782 27.355469 77.679688 48.226562 95.113282-14.695312-18.058594-27.390624-42.742188-27.390624-74.113282zm0 0" fill="#9b5729"/><path d="m68.234375 359.640625 17.21875-23.5c1.710937-2.332031 4.136719-2.496094 5.796875-.589844l-10.003906-18.203125c-1.324219-2.410156-3.738282-2.566406-5.363282-.347656l-14.207031 19.390625c-1.625 2.21875-2.304687 6.1875-1.5 8.820313l6.019531 19.804687c.316407-2.011719 1.019532-3.980469 2.039063-5.375zm0 0" fill="#003c72"/><path d="m133.425781 365.519531v-17.460937c0-.605469.125-1.175782.324219-1.714844l-22.84375-19.703125c-4.25-3.492187-7.726562-1.851563-7.726562 3.648437v52.996094c0 5.5 3.476562 7.144532 7.726562 3.648438l22.828125-19.75c-.1875-.523438-.308594-1.078125-.308594-1.664063zm0 0" fill="#00cca5"/><path d="m117.003906 331.902344-6.097656-5.261719c-4.25-3.492187-7.726562-1.851563-7.726562 3.648437v52.996094c0 5.5 3.476562 7.144532 7.726562 3.648438l6.097656-5.277344zm0 0" fill="#02af8e"/><path d="m172.28125 326.640625-21.539062 18.5625c.570312.8125.910156 1.792969.910156 2.855469v17.460937c0 1.042969-.324219 2.011719-.878906 2.816407l21.507812 18.601562c4.25 3.492188 7.726562 1.851562 7.726562-3.652344v-52.996094c0-5.5-3.476562-7.140624-7.726562-3.648437zm0 0" fill="#00cca5"/><path d="m151.652344 365.519531c0 2.75-2.25 5-5 5h-8.226563c-2.75 0-5-2.25-5-5v-17.460937c0-2.75 2.25-5 5-5h8.226563c2.75 0 5 2.25 5 5zm0 0" fill="#02af8e"/><path d="m285.148438 99.570312c-1.449219 0-2.804688-.5625-3.828126-1.574218l-44.34375-43.976563c-5.195312-5.148437-8.054687-11.992187-8.054687-19.269531s2.855469-14.121094 8.054687-19.265625c5.1875-5.148437 12.085938-7.984375 19.429688-7.984375 7.339844 0 14.238281 2.835938 19.4375 7.984375l9.304688 9.226563 9.308593-9.226563c5.195313-5.148437 12.097657-7.984375 19.4375-7.984375 7.339844 0 14.238281 2.835938 19.433594 7.984375 5.1875 5.144531 8.046875 11.988281 8.046875 19.265625s-2.859375 14.125-8.046875 19.269531l-44.351563 43.976563c-1.023437 1.011718-2.382812 1.574218-3.828124 1.574218zm0 0" fill="#fe3745"/><path d="m257.613281 43.214844c-5.195312-5.148438-8.054687-11.996094-8.054687-19.273438 0-6.003906 1.949218-11.710937 5.546875-16.410156-6.851563.316406-13.25 3.109375-18.128907 7.953125-5.195312 5.144531-8.054687 11.988281-8.054687 19.265625s2.855469 14.121094 8.054687 19.269531l44.34375 43.976563c1.023438 1.015625 2.378907 1.574218 3.828126 1.574218 1.445312 0 2.804687-.558593 3.828124-1.574218l11.941407-11.839844zm0 0" fill="#cf043c"/><path d="m303.472656 311.9375c8.851563 1.78125 17.28125 1.472656 25.050782-.074219v34.214844c-6.40625 5.660156-16.820313 15.378906-26.046876 26.257813h134.09375c-12.863281-26.613282-41.3125-33.804688-44.261718-34.484376v-31.652343c-2.011719 1-4.058594 1.980469-6.167969 2.921875l-14.433594-20.363282-.175781-.25s11.390625-11.402343 20.421875-25.03125c.117187.019532.234375.023438.355469.039063 10.453125 1.449219 20.425781-5.734375 22.605468-16.589844 2.261719-11.265625-4.714843-22.171875-15.589843-24.359375-4.847657-.976562-9.636719-.039062-13.667969 2.277344h-10.042969l-2.375-53.398438s-45.054687 14.519532-78.402343 7.964844c-1.3125 2.355469-1.988282 3.871094-1.988282 3.871094s-13.242187 23.65625-26.953125 32.785156c-13.710937 9.128906-1.164062 22.691406 11.230469 24.335938l-6.234375 31.015625c0-.003907-7.375 32.476562 32.582031 40.519531zm0 0" fill="#ffe2b8"/><path d="m442.539062 394.644531c.015626.164063.03125.332031.046876.5-.015626-.164062-.019532-.335937-.03125-.5zm0 0" fill="#ffe2b8"/><path d="m283.550781 405.566406c-.113281.699219-.199219 1.382813-.253906 2.050782-2.015625 26.253906 21.195313 43.96875 21.445313 44.15625v18.992187c0 2.832031 2.296874 5.132813 5.128906 5.132813h127.847656c2.832031 0 5.128906-2.300782 5.128906-5.132813v-65.199219zm0 0" fill="#fcf3eb"/><path d="m327.871094 470.21875v-21.015625c-.257813-.195313-22.90625-17.484375-23.828125-43.640625h-20.492188c-.113281.699219-.199219 1.386719-.253906 2.054688-2.015625 26.253906 21.195313 43.96875 21.445313 44.15625v18.988281c0 2.835937 2.296874 5.136719 5.128906 5.136719h23.679687c-3.136719 0-5.679687-2.542969-5.679687-5.679688zm0 0" fill="#c7c8ca"/><path d="m499.148438 128.96875-6.726563-10.976562c-10.5-17.144532-32.894531-22.523438-50.019531-12.011719-4.570313 2.800781-8.292969 6.460937-11.113282 10.632812 1.597657 2.417969 2.53125 5.3125 2.53125 8.429688 0 2.035156-.40625 3.976562-1.128906 5.757812.832032-.140625 1.675782-.230469 2.546875-.230469 8.445313 0 15.292969 6.851563 15.292969 15.304688 0 2.183594-.464844 4.253906-1.285156 6.132812.453125-.039062.914062-.070312 1.378906-.070312 8.449219 0 15.296875 6.855469 15.296875 15.308594 0 3.417968-1.132813 6.5625-3.027344 9.109375.578125-.066407 1.164063-.109375 1.757813-.109375 5.363281 0 10.070312 2.765625 12.800781 6.941406 3.335937-.886719 6.601563-2.257812 9.691406-4.15625 17.128907-10.507812 22.503907-32.917969 12.003907-50.0625zm0 0" fill="#f39600"/><path d="m442.402344 105.980469c-4.566406 2.800781-8.292969 6.460937-11.113282 10.632812 1.597657 2.417969 2.53125 5.3125 2.53125 8.429688 0 2.035156-.40625 3.976562-1.128906 5.757812.832032-.140625 1.675782-.230469 2.546875-.230469 5.035157 0 9.492188 2.449219 12.277344 6.207032 2.457031-8.332032 7.882813-15.8125 15.867187-20.710938 7.304688-4.480468 15.566407-6.0625 23.457032-5.085937-11.632813-11.398438-29.925782-13.90625-44.4375-5zm0 0" fill="#ce7a00"/><path d="m459.507812 205.949219c-5.910156-2.117188-10.144531-7.753907-10.144531-14.398438 0-3.417969 1.132813-6.5625 3.023438-9.109375-.578125.066406-1.164063.109375-1.761719.109375-8.441406 0-15.289062-6.855469-15.289062-15.308593 0-2.179688.464843-4.253907 1.285156-6.132813-.457032.039063-.917969.070313-1.382813.070313-8.445312 0-15.292969-6.851563-15.292969-15.304688 0-2.039062.40625-3.980469 1.128907-5.757812-.832031.140624-1.679688.230468-2.550781.230468-8.441407 0-15.289063-6.855468-15.289063-15.308594 0-.875.089844-1.730468.230469-2.566406-5.175782-2.023437-10.644532-3.605468-16.410156-4.660156-85.058594-15.5625-115.238282 51.261719-115.238282 51.261719 29.265625 25.628906 101.425782 2.371093 101.425782 2.371093l2.375 53.398438h10.039062c4.035156-2.316406 8.824219-3.253906 13.667969-2.28125 10.875 2.191406 17.855469 13.097656 15.589843 24.359375-2.203124 10.980469-12.378906 18.21875-22.960937 16.554687-9.03125 13.628907-20.421875 25.03125-20.421875 25.03125l14.609375 20.613282c52.222656-23.277344 74.109375-64.679688 73.367187-103.171875zm0 0" fill="#f39600"/><path d="m419.945312 145.875c0-2.039062.40625-3.980469 1.128907-5.757812-.828125.140624-1.675781.230468-2.546875.230468-8.445313 0-15.292969-6.851562-15.292969-15.304687 0-.878907.089844-1.734375.234375-2.570313-5.175781-2.019531-10.644531-3.605468-16.414062-4.660156-85.054688-15.558594-115.238282 51.261719-115.238282 51.261719 2.746094 2.402343 5.867188 4.375 9.273438 5.980469 14.460937-18.691407 47.042968-47.441407 105.964844-36.660157 13.078124 2.390625 24.679687 7.429688 34.5625 14.410157-1.0625-2.082032-1.671876-4.433594-1.671876-6.929688zm0 0" fill="#ce7a00"/><path d="m388.886719 262.4375c0-5.558594-4.507813-10.066406-10.0625-10.066406-5.558594 0-10.0625 4.507812-10.0625 10.066406 0 5.5625 4.503906 10.070312 10.0625 10.070312 5.554687 0 10.0625-4.507812 10.0625-10.070312zm0 0" fill="#fff"/><path d="m432.691406 130.800781c.722656-1.78125 1.128906-3.722656 1.128906-5.757812 0-8.453125-6.847656-15.308594-15.292968-15.308594-8.445313 0-15.292969 6.855469-15.292969 15.308594s6.847656 15.304687 15.292969 15.304687c.871094 0 1.71875-.089844 2.546875-.230468 1.96875-4.839844 6.332031-8.429688 11.617187-9.316407zm0 0" fill="#def9ff"/><path d="m449.246094 152.007812c.820312-1.878906 1.285156-3.949218 1.285156-6.132812 0-8.453125-6.847656-15.304688-15.292969-15.304688-8.441406 0-15.292969 6.851563-15.292969 15.304688s6.851563 15.304688 15.292969 15.304688c.464844 0 .925781-.03125 1.382813-.070313 2.1875-4.996094 6.957031-8.59375 12.625-9.101563zm0 0" fill="#00cca5"/><path d="m452.390625 182.4375c2.457031-3.304688 6.203125-5.589844 10.507813-6.082031 1.890624-2.546875 3.023437-5.695313 3.023437-9.113281 0-8.449219-6.847656-15.304688-15.292969-15.304688-8.445312 0-15.292968 6.851562-15.292968 15.304688 0 8.453124 6.847656 15.308593 15.292968 15.308593.597656 0 1.179688-.042969 1.761719-.113281zm0 0" fill="#def9ff"/><path d="m479.949219 191.550781c0-8.453125-6.847657-15.304687-15.292969-15.304687s-15.292969 6.851562-15.292969 15.304687 6.847657 15.304688 15.292969 15.304688 15.292969-6.851563 15.292969-15.304688zm0 0" fill="#00cca5"/><path d="m351.726562 405.566406h47.851563v70.332032h-47.851563zm0 0" fill="#ffe2b8"/><path d="m351.726562 405.566406h20.4375v70.332032h-20.4375zm0 0" fill="#ffc987"/><path d="m274.375 400.796875c-.824219 2.621094.753906 4.769531 3.503906 4.769531h167.335938c2.75 0 5-2.25 5-5v-23.230468c0-2.75-2.25-5-5-5h-156.917969c-2.75 0-5.671875 2.144531-6.496094 4.769531zm0 0" fill="#00cca5"/><path d="m306.175781 400.796875 7.429688-23.691406c.820312-2.625 3.746093-4.769531 6.496093-4.769531h-31.804687c-2.75 0-5.671875 2.144531-6.496094 4.769531l-7.425781 23.691406c-.824219 2.621094.753906 4.769531 3.503906 4.769531h31.800782c-2.75 0-4.328126-2.148437-3.503907-4.769531zm0 0" fill="#159e97"/><path d="m442.554688 394.644531h-.015626c.015626.164063.03125.332031.046876.5-.015626-.164062-.019532-.335937-.03125-.5zm0 0" fill="#ffe2b8"/><path d="m442.585938 395.144531c.0625.820313.121093 1.644531.160156 2.484375-.035156-.839844-.09375-1.664062-.160156-2.484375zm0 0" fill="#ffe2b8"/><path d="m183.773438 187.257812c-2.3125 2.324219-5.386719 3.605469-8.652344 3.605469s-6.339844-1.28125-8.65625-3.605469c-2.925782-2.9375-7.675782-2.941406-10.605469-.019531-2.9375 2.925781-2.945313 7.675781-.019531 10.609375 5.152344 5.167969 12 8.015625 19.28125 8.015625s14.128906-2.847656 19.28125-8.015625c2.921875-2.9375 2.914062-7.6875-.019532-10.609375-2.9375-2.925781-7.683593-2.914062-10.609374.019531zm0 0"/><path d="m276.042969 103.324219c2.4375 2.417969 5.671875 3.746093 9.105469 3.746093 3.433593 0 6.667968-1.328124 9.109374-3.75l17.03125-16.886718c2.941407-2.917969 2.960938-7.667969.046876-10.609375-2.917969-2.9375-7.667969-2.957031-10.609376-.042969l-15.578124 15.449219-42.894532-42.539063c-3.761718-3.726562-5.832031-8.679687-5.832031-13.941406s2.066406-10.210938 5.839844-13.941406c3.769531-3.746094 8.796875-5.808594 14.144531-5.808594s10.375 2.066406 14.15625 5.8125l9.308594 9.226562c2.921875 2.898438 7.636718 2.894532 10.558594 0l9.308593-9.226562c3.78125-3.746094 8.808594-5.8125 14.15625-5.8125 5.34375 0 10.371094 2.0625 14.152344 5.8125 3.757813 3.726562 5.824219 8.675781 5.824219 13.9375 0 5.265625-2.066406 10.21875-5.824219 13.945312l-2.316406 2.300782c-2.941407 2.914062-2.960938 7.664062-.042969 10.605468 2.914062 2.9375 7.664062 2.960938 10.605469.042969l2.316406-2.296875c6.621094-6.566406 10.265625-15.300781 10.265625-24.597656 0-9.292969-3.644531-18.027344-10.265625-24.589844-6.609375-6.550781-15.386719-10.160156-24.714844-10.160156s-18.105469 3.605469-24.71875 10.160156l-4.023437 3.992188-4.027344-3.992188c-6.613281-6.554687-15.390625-10.160156-24.71875-10.160156-9.332031 0-18.109375 3.609375-24.707031 10.15625-6.628907 6.5625-10.277344 15.292969-10.277344 24.59375 0 9.296875 3.648437 18.03125 10.273437 24.597656zm0 0"/><path d="m505.546875 125.054688-6.726563-10.980469c-8.042968-13.128907-22.039062-20.96875-37.441406-20.96875-8.070312 0-15.988281 2.242187-22.898437 6.480469-2.902344 1.78125-5.511719 3.855468-7.839844 6.148437-3.511719-2.214844-7.664063-3.5-12.113281-3.5-8.179688 0-15.363282 4.335937-19.386719 10.828125-3.496094-1.0625-7.070313-1.960938-10.734375-2.628906-8.964844-1.640625-17.78125-2.472656-26.199219-2.472656-36.632812 0-61.074219 15.675781-75.132812 28.828124-15.246094 14.261719-21.820313 28.59375-22.09375 29.195313-1.359375 3.007813-.589844 6.554687 1.894531 8.730469 4.574219 4.003906 10.164062 7.148437 16.722656 9.429687-4.882812 7.792969-13.730468 20.265625-21.855468 25.675781-7.347657 4.890626-10.582032 11.921876-8.875 19.289063 1.621093 6.988281 7.789062 13.316406 15.542968 16.601563l-4.863281 24.191406c-.363281 1.726562-3.035156 16.164062 5.597656 29.5 6.554688 10.128906 17.609375 16.820312 32.847657 19.890625 4.546874.914062 9.136718 1.367187 13.753906 1.367187 1.757812 0 3.515625-.089844 5.277344-.21875v22.277344c-6.28125 5.675781-14.382813 13.457031-21.984376 22.113281h-10.738281c-5.992187 0-11.863281 4.308594-13.652343 10.023438l-7.429688 23.691406c-1.113281 3.554687-.558594 7.21875 1.523438 10.050781 1.667968 2.273438 4.144531 3.753906 6.980468 4.257813.839844 21.351562 15.144532 36.621093 21.519532 42.390625v15.515625c0 6.964843 5.667968 12.636719 12.632812 12.636719h127.84375c6.964844 0 12.628906-5.671876 12.628906-12.636719v-58.8125c4.339844-1.964844 7.367188-6.324219 7.367188-11.386719v-23.230469c0-6.894531-5.605469-12.5-12.5-12.5h-4.054688c-11.609375-20.253906-31.296875-29.203125-41.351562-32.601562v-21.429688c46.445312-24.632812 64.867187-62.855469 66.992187-96.550781 11.566407-1.085938 20.648438-10.851562 20.648438-22.703125 0-1.359375-.128907-2.691406-.355469-3.988281 1.351562-.648438 2.6875-1.34375 3.976562-2.136719 20.621094-12.652344 27.113282-39.734375 14.476563-60.367187zm-47.539063 44.683593c-3.363281 1.027344-6.394531 2.816407-8.898437 5.160157-3.570313-.710938-6.273437-3.871094-6.273437-7.65625 0-4.304688 3.496093-7.804688 7.792968-7.804688s7.792969 3.5 7.792969 7.804688c0 .875-.148437 1.710937-.414063 2.496093zm-25.34375-16.507812c-3.03125-1.066407-5.21875-3.957031-5.21875-7.355469 0-4.304688 3.496094-7.804688 7.792969-7.804688 4.253907 0 7.71875 3.433594 7.785157 7.679688-4.125 1.464844-7.710938 4.089844-10.359376 7.480469zm-14.136718-35.996094c4.246094 0 7.707031 3.421875 7.785156 7.65625-3.867188 1.652344-7.183594 4.351563-9.605469 7.730469-3.421875-.824219-5.972656-3.90625-5.972656-7.582032 0-4.300781 3.496094-7.804687 7.792969-7.804687zm-74.300782 351.164063h-31.984374v-16.625c0-2.332032-1.109376-4.550782-2.957032-5.972657-.1875-.140625-17.25-13.464843-18.523437-32.734375h53.464843zm91.121094 0h-28.269531v-9.691407c0-4.144531-3.355469-7.5-7.5-7.5s-7.5 3.355469-7.5 7.5v9.691407h-32.851563v-55.332032h32.851563v10.636719c0 4.144531 3.355469 7.5 7.5 7.5s7.5-3.355469 7.5-7.5v-10.636719h28.269531zm7.367188-70.332032h-159.625l5.714844-18.230468h153.910156zm-19.882813-33.230468h-103.238281c5.503906-5.5625 10.570312-10.199219 13.894531-13.140626 1.609375-1.421874 2.53125-3.46875 2.53125-5.617187v-28.320313c3.21875-.910156 6.4375-2.007812 9.660157-3.34375 3.828124-1.589843 5.640624-5.976562 4.054687-9.804687-1.585937-3.824219-5.976563-5.640625-9.800781-4.050781-11.925782 4.945312-23.695313 6.300781-34.980469 4.027344-11.046875-2.222657-18.824219-6.660157-23.121094-13.183594-5.605469-8.519532-3.632812-18.285156-3.625-18.328125.011719-.0625.027344-.121094.039063-.183594l6.234375-31.011719c.40625-2.035156-.042969-4.148437-1.25-5.835937-1.207031-1.691407-3.058594-2.804688-5.117188-3.078125-5.121093-.679688-10.003906-4.515625-10.632812-7.238282-.226563-.980468.636719-2.132812 2.570312-3.417968 13.796875-9.183594 26.472657-30.382813 28.925781-34.636719 4.707032.621094 9.742188.941406 15.113282.941406 20.257812-.003906 40.613281-4.394531 52.082031-7.367187l1.953125 43.929687c.175781 4.011719 3.480469 7.167969 7.492188 7.167969h9.394531c1.589843.019531 2.644531-.011719 3.800781-.667969 2.820312-1.601562 5.933594-2.378906 9.035156-1.757812 6.804688 1.367187 11.160156 8.332031 9.714844 15.527343-.710938 3.53125-2.691406 6.574219-5.574219 8.566407-2.050781 1.414062-4.382812 2.167969-6.757812 2.21875-2.515625-6.628907-8.910157-11.363281-16.40625-11.363281-9.683594 0-17.5625 7.882812-17.5625 17.570312 0 6.859375 3.960937 12.796875 9.707031 15.691406-2.792969 3.109375-4.683594 5.019532-4.738281 5.078125-2.585938 2.582031-2.929688 6.652344-.816407 9.636719l14.609376 20.613281c1.167968 1.648438 2.90625 2.691407 4.785156 3.03125v21.363281c0 3.492188 2.414062 6.523438 5.8125 7.308594 2.785156.640625 19.976562 5.125 32.210937 19.675782zm-41.445312-102.398438c0 1.417969-1.148438 2.570312-2.5625 2.570312-1.414063 0-2.558594-1.152343-2.558594-2.570312 0-1.414062 1.144531-2.566406 2.558594-2.566406 1.410156 0 2.5625 1.152344 2.5625 2.566406zm7.238281 37.21875-7.417969-10.46875c3.726563-4.089844 9.273438-10.546875 14.519531-17.96875 5.226563-.136719 10.328126-1.785156 14.789063-4.863281 6.101563-4.214844 10.273437-10.59375 11.753906-17.953125 3.074219-15.300782-6.554687-30.191406-21.464843-33.191406-5.789063-1.164063-11.714844-.398438-17.019532 2.132812h-.996094l-2.054687-46.230469c-.105469-2.335937-1.292969-4.488281-3.210937-5.824219-1.921876-1.335937-4.351563-1.699218-6.578126-.984374-.289062.09375-29.28125 9.308593-56.859374 9.308593-13.859376 0-24.75-2.261719-32.484376-6.734375 2.960938-4.800781 8.230469-12.21875 16.167969-19.546875 17.507813-16.171875 39.1875-24.367187 64.4375-24.367187 7.515625 0 15.421875.75 23.5 2.226562 3.484375.640625 6.886719 1.496094 10.191407 2.550782 1.101562 9.273437 7.78125 16.855468 16.578124 19.285156.472657 9.484375 6.765626 17.457031 15.367188 20.417968.082031 9.464844 5.960938 17.554688 14.246094 20.917969-.144532 1.042969-.226563 2.105469-.226563 3.1875 0 7.914063 4.046875 14.890625 10.175781 18.984375-.9375 42.636719-31.464843 73.160156-63.414062 89.121094zm76.027344-100.300781c-4.292969 0-7.789063-3.5-7.789063-7.804688 0-4.304687 3.496094-7.804687 7.789063-7.804687 4.300781 0 7.796875 3.5 7.796875 7.804687 0 4.304688-3.496094 7.804688-7.796875 7.804688zm18.570312-26.714844c-1.125.691406-2.296875 1.296875-3.496094 1.820313-1.917968-1.695313-4.125-3.070313-6.53125-4.050782.144532-1.035156.230469-2.089844.230469-3.167968 0-9.984376-6.449219-18.484376-15.398437-21.5625-.089844-10.394532-7.15625-19.144532-16.734375-21.789063-.109375-2.203125-.539063-4.320313-1.230469-6.320313 1.792969-1.972656 3.878906-3.734374 6.265625-5.199218 4.546875-2.789063 9.75-4.265625 15.050781-4.265625 10.140625 0 19.355469 5.160156 24.648438 13.800781l6.726562 10.980469c8.320313 13.589843 4.046875 31.421875-9.53125 39.753906zm0 0"/><path d="m328.476562 202.589844c-2.332031 1.554687-5.117187 2.109375-7.847656 1.558594-2.734375-.546876-5.09375-2.140626-6.640625-4.476563-2.289062-3.453125-6.941406-4.398437-10.394531-2.113281-3.453125 2.289062-4.402344 6.941406-2.113281 10.398437 3.765625 5.683594 9.515625 9.554688 16.1875 10.898438 1.683593.339843 3.378906.507812 5.058593.507812 4.972657 0 9.839844-1.46875 14.078126-4.296875 3.445312-2.300781 4.371093-6.957031 2.074218-10.402344-2.304687-3.445312-6.960937-4.371093-10.402344-2.074218zm0 0"/><path d="m217.082031 172.441406v-25.53125c3.171875-2.90625 8.203125-8.210937 12.355469-15.757812 5.980469-10.871094 11.316406-28.660156 2.765625-51.652344-1.269531-3.417969-4.816406-5.429688-8.398437-4.757812l-38.664063 7.195312h-86.371094c-2.691406 0-26.929687.320312-50.585937 11.511719-21.980469 10.398437-48.183594 32.546875-48.183594 79.027343 0 32.421876 13.09375 63.109376 37.859375 88.742188 13.574219 14.050781 27.085937 22.941406 33.644531 26.851562v22.652344c-.605468.542969-1.167968 1.15625-1.667968 1.84375l-14.210938 19.390625c-1.933594 2.636719-3.070312 6.269531-3.246094 9.816407-14.28125 15.152343-35 43.59375-35 81.035156v47.953125c0 6.96875 5.664063 12.636719 12.628906 12.636719h190c3.847657 0 7.203126-1.703126 9.199219-4.675782 2-2.96875 2.3125-6.71875.863281-10.285156l-29.808593-73.214844c.757812-3.574218.007812-7.4375-2.367188-10.519531l-4.054687-5.261719-6.335938-15.558594v-33.59375c0-8.875-5.695312-12.941406-11.019531-12.980468 13.925781-1.046875 24.992187-5.691406 32.957031-13.855469 12.027344-12.332031 12.230469-28.261719 12.214844-30.070313v-27.738281c9.085938-1.683593 17.175781-7.085937 20.414062-14.214843 3.300782-7.277344 1.394532-15.253907-5.234374-21.890626-8.996094-9.007812-16.960938-28.863281-19.753907-37.097656zm-27.714843 235.804688 24.488281 60.152344h-25.761719l8.085938-34.699219c1.214843-5.234375-.71875-11.730469-4.601563-15.445313l-6.496094-6.214844zm-174.367188-235.769532c0-31.015624 13.324219-53.039062 39.597656-65.46875 20.691406-9.789062 41.828125-10.070312 44.167969-10.070312h87.0625c.460937 0 .921875-.042969 1.375-.128906l32.820313-6.109375c6.429687 25.011719-7.96875 40.605469-13.132813 45.242187h-81.410156c-4.140625 0-7.5 3.359375-7.5 7.5v67.566406h-4.949219l-.824219-5.933593c-.230469-1.652344-1.003906-3.183594-2.199219-4.34375-5.519531-5.363281-12.742187-8.316407-20.339843-8.316407-16.3125 0-29.578125 13.628907-29.578125 30.375 0 13.957032 9.210937 25.742188 21.71875 29.289063l-6.917969 20.398437c-17.605469-11.550781-59.890625-45.027343-59.890625-100zm52.726562 168.347657 10.207032-13.933594 17.746094 32.292969v24.101562c0 8.925782 5.757812 12.988282 11.105468 12.988282 1.871094 0 4.664063-.507813 7.789063-2.71875l7.496093 13.636718c-1.515624-1.851562-3.75-3.167968-6.417968-3.703125l-31.230469-6.25c-.261719-.128906-.660156-.496093-.8125-.738281l-16.246094-53.421875c-.117187-.539063.105469-1.824219.363281-2.253906zm42.953126 36.585937v-41.242187l15.246093 12.539062v16.164063zm-78.300782 90.988282v-45.589844c0-27.074219 12.757813-48.949219 24.328125-63.222656l12.589844 41.398437c1.597656 5.257813 6.671875 9.855469 12.058594 10.9375l22.519531 4.507813-12.628906 12.640624c-2.476563 2.476563-3.746094 5.847657-3.488282 9.242188.261719 3.394531 2.027344 6.53125 4.851563 8.605469l29.28125 21.480469zm117.414063 0c-1.164063 0-3.65625-.816407-4.597657-1.503907l-40.699218-29.863281 16.355468-16.367188c2.898438-2.902343 3.996094-6.738281 2.929688-10.261718-.023438-.074219-.046875-.148438-.070312-.222656l31.996093 58.21875zm-2.183594-90.378907 6.417969 56.179688-27.640625-50.285157 7.164062-5.894531zm-6.683594-15v-12.460937h3.226563v12.460937zm31.578125-26.851562v41.242187l-13.351562-10.984375v-19.277343zm-5.515625-14.882813v-3.824218c1.101563.050781 2.191407.074218 3.265625.074218 1.679688 0 3.3125-.058594 4.917969-.152344-2.027344.222657-4.726563 1.058594-7.652344 3.464844zm15.269531 73.222656-9.476562 8.386719c-2.550781 2.253907-4.046875 5.472657-4.113281 8.828125-.066407 3.355469 1.308593 6.628906 3.765625 8.976563l8.707031 8.328125c.207031.296875.414063 1.003906.40625 1.363281l-8.628906 37.039063-8.851563-77.542969 3.453125 2.839843c3.558594 2.929688 6.792969 3.542969 8.882813 3.542969 2.144531.003907 4.148437-.625 5.855468-1.761719zm46.152344-169.285156c-1.394531 3.078125-7.710937 6.347656-13.753906 5.933594-2.074219-.128906-4.109375.585938-5.625 2.003906-1.515625 1.421875-2.378906 3.402344-2.378906 5.480469v34.78125c0 .0625 0 .074219.003906.136719 0 .113281.027344 11.347656-8.082031 19.546875-6.1875 6.257812-15.714844 9.429687-28.320313 9.429687-14.527344 0-32.585937-5.808594-53.667968-17.261718-3.644532-1.976563-8.195313-.628907-10.171876 3.007812-1.980468 3.644531-.632812 8.195312 3.007813 10.171875 15.503906 8.425781 29.742187 14.066406 42.566406 16.914063v18.253906l-2.355469 1.9375h-16.078124l-17.882813-14.710938c-3.5625-2.929687-6.800781-3.542968-8.886719-3.542968-4.921875 0-10.175781 3.449218-10.984375 10.953124l-7.980469-14.523437c-.382812-.695313-.832031-1.316406-1.316406-1.902344v-26.894531l12.542969-36.988281c.820313-2.421875.351563-5.097657-1.246094-7.09375-1.597656-1.996094-4.089843-3.050781-6.644531-2.773438-.53125.054688-1.015625.082031-1.488281.082031-8.039063 0-14.578125-6.894531-14.578125-15.375 0-8.480468 6.539062-15.375 14.578125-15.375 2.902343 0 5.699219.902344 8.078125 2.574219l1.328125 9.550781c.515625 3.707032 3.6875 6.464844 7.429687 6.464844h18.976563c4.144531 0 7.5-3.355468 7.5-7.5v-67.5625h69.101562v22.707032c0 .78125.121094 1.558593.359375 2.300781.398438 1.230469 9.863282 30.257812 23.785156 44.191406 3.089844 3.09375 2.40625 4.589844 2.183594 5.082031zm0 0"/></svg>