<?xml version="1.0" encoding="iso-8859-1"?>
<!-- Generator: Adobe Illustrator 19.0.0, SVG Export Plug-In . SVG Version: 6.00 Build 0)  -->
<svg version="1.1" id="Capa_1" xmlns="http://www.w3.org/2000/svg" xmlns:xlink="http://www.w3.org/1999/xlink" x="0px" y="0px"
	 viewBox="0 0 512 512" style="enable-background:new 0 0 512 512;" xml:space="preserve">
<g>
	<g>
		<path d="M256,215.773c-25.265,0-45.819,20.555-45.819,45.82c0,25.265,20.554,45.818,45.819,45.818
			c25.265,0,45.819-20.554,45.819-45.819C301.819,236.327,281.265,215.773,256,215.773z M256,287.333
			c-14.193,0-25.741-11.547-25.741-25.741c0-14.194,11.547-25.742,25.741-25.742c14.193,0,25.741,11.547,25.741,25.742
			C281.741,275.786,270.193,287.333,256,287.333z"/>
	</g>
</g>
<g>
	<g>
		<path d="M488.323,361.404L350.63,297.027v-96.926c0-2.566-0.983-5.035-2.745-6.898l-81.846-86.537V51.381h14.185
			c5.544,0,10.039-4.496,10.039-10.039s-4.496-10.039-10.039-10.039h-14.185V10.039C266.039,4.496,261.544,0,256,0
			c-5.545,0-10.039,4.496-10.039,10.039v21.263h-14.185c-5.545,0-10.039,4.496-10.039,10.039s4.495,10.039,10.039,10.039h14.185
			v55.287l-81.845,86.536c-1.763,1.863-2.746,4.332-2.746,6.898v96.926L23.677,361.403c-5.023,2.348-7.191,8.323-4.843,13.346
			c2.349,5.024,8.323,7.19,13.346,4.842l19.25-9v131.37c0,5.544,4.495,10.039,10.039,10.039h109.94h48.821h71.55h48.811H450.53
			c5.544,0,10.039-4.496,10.039-10.039V370.592l19.25,9c5.026,2.349,10.999,0.18,13.346-4.842
			C495.514,369.727,493.346,363.752,488.323,361.404z M161.371,491.922h-35.078v-63.528c0-5.544-4.495-10.039-10.039-10.039
			c-5.545,0-10.039,4.496-10.039,10.039v63.528H71.509V361.204l89.862-42.013V491.922z M281.741,491.922H230.27v-86.096
			c0-14.194,11.543-25.742,25.731-25.742c6.882,0,13.343,2.676,18.2,7.541c4.863,4.862,7.54,11.325,7.54,18.2V491.922z
			 M330.551,303.416v188.505h-28.732v-86.096c0-12.237-4.767-23.743-13.415-32.393c-8.646-8.658-20.153-13.426-32.404-13.426
			c-25.26,0-45.809,20.555-45.809,45.82v86.095h-28.742V303.415v-99.318h0.001L256,125.272l74.551,78.825V303.416z M440.491,491.922
			h-34.705v-42.496c0-5.544-4.496-10.039-10.039-10.039c-5.544,0-10.039,4.496-10.039,10.039v42.496h-35.077v-172.73l89.86,42.013
			V491.922z"/>
	</g>
</g>
<g>
	<g>
		<path d="M395.749,412.612c-12.919,0-12.941,20.078,0,20.078C408.668,432.69,408.689,412.612,395.749,412.612z"/>
	</g>
</g>
<g>
</g>
<g>
</g>
<g>
</g>
<g>
</g>
<g>
</g>
<g>
</g>
<g>
</g>
<g>
</g>
<g>
</g>
<g>
</g>
<g>
</g>
<g>
</g>
<g>
</g>
<g>
</g>
<g>
</g>
</svg>
