<svg id="Layer_1" enable-background="new 0 0 512 512" height="512" viewBox="0 0 512 512" width="512" xmlns="http://www.w3.org/2000/svg"><g><path d="m160 7.5h100v50h-100z" fill="#ff7043"/><path d="m230 7.5h30v50h-30z" fill="#ff5722"/><path d="m146 92.5h220v380h-220z" fill="#fdeedf"/><path d="m336 92.5h30v380h-30z" fill="#f0d6c0"/><path d="m54 162.5h92v310h-92z" fill="#43809f"/><path d="m116 162.5h30v310h-30z" fill="#3a7190"/><path d="m366 162.5h92v310h-92z" fill="#43809f"/><path d="m428 162.5h30v310h-30z" fill="#3a7190"/><path d="m488.5 504.5h-465c-8.837 0-16-7.163-16-16 0-8.837 7.163-16 16-16h465c8.837 0 16 7.163 16 16 0 8.837-7.163 16-16 16z" fill="#a35418"/><path d="m488.5 472.5h-30c8.837 0 16 7.163 16 16 0 8.837-7.163 16-16 16h30c8.837 0 16-7.163 16-16 0-8.837-7.163-16-16-16z" fill="#8c4815"/><path d="m176 138.5h160v30h-160z" fill="#b2ebf2"/><path d="m306 138.5h30v30h-30z" fill="#80deea"/><path d="m176 194.5h160v30h-160z" fill="#b2ebf2"/><path d="m306 194.5h30v30h-30z" fill="#80deea"/><path d="m176 250.5h160v30h-160z" fill="#b2ebf2"/><path d="m306 250.5h30v30h-30z" fill="#80deea"/><path d="m176 306.5h160v30h-160z" fill="#b2ebf2"/><path d="m306 306.5h30v30h-30z" fill="#80deea"/><path d="m176.489 362.5h160v30h-160z" fill="#b2ebf2"/><path d="m306.489 362.5h30v30h-30z" fill="#80deea"/><path d="m198 428.5h116v44h-116z" fill="#b2ebf2"/><path d="m284 428.5h30v44h-30z" fill="#80deea"/><path d="m86 194.5h60v30h-60z" fill="#b2ebf2"/><path d="m116 194.5h30v30h-30z" fill="#80deea"/><path d="m86 250.5h60v30h-60z" fill="#b2ebf2"/><path d="m116 250.5h30v30h-30z" fill="#80deea"/><path d="m86 306.5h60v30h-60z" fill="#b2ebf2"/><path d="m116 306.5h30v30h-30z" fill="#80deea"/><path d="m86 362.5h60v30h-60z" fill="#b2ebf2"/><path d="m116 362.5h30v30h-30z" fill="#80deea"/><path d="m366 194.5h60v30h-60z" fill="#b2ebf2"/><path d="m396 194.5h30v30h-30z" fill="#80deea"/><path d="m366 250.5h60v30h-60z" fill="#b2ebf2"/><path d="m396 250.5h30v30h-30z" fill="#80deea"/><path d="m366 306.5h60v30h-60z" fill="#b2ebf2"/><path d="m396 306.5h30v30h-30z" fill="#80deea"/><path d="m367 362.5h60v30h-60z" fill="#b2ebf2"/><path d="m397 362.5h30v30h-30z" fill="#80deea"/><g><path d="m488.5 465h-23v-81.231c0-4.142-3.357-7.5-7.5-7.5s-7.5 3.358-7.5 7.5v81.231h-77v-65h52.5c4.143 0 7.5-3.358 7.5-7.5v-30c0-4.142-3.357-7.5-7.5-7.5h-52.5v-11h52.5c4.143 0 7.5-3.358 7.5-7.5v-30c0-4.142-3.357-7.5-7.5-7.5h-52.5v-11h52.5c4.143 0 7.5-3.358 7.5-7.5v-30c0-4.142-3.357-7.5-7.5-7.5h-52.5v-11h52.5c4.143 0 7.5-3.358 7.5-7.5v-30c0-4.142-3.357-7.5-7.5-7.5h-52.5v-17h77v181.615c0 4.142 3.357 7.5 7.5 7.5s7.5-3.358 7.5-7.5v-189.115c0-4.142-3.357-7.5-7.5-7.5h-28.577v-84.667c0-4.142-3.357-7.5-7.5-7.5s-7.5 3.358-7.5 7.5v84.667h-40.923v-62.5c0-4.142-3.357-7.5-7.5-7.5h-46.077c-4.143 0-7.5 3.358-7.5 7.5s3.357 7.5 7.5 7.5h38.577v365h-37v-36.5c0-4.142-3.357-7.5-7.5-7.5h-116c-4.143 0-7.5 3.358-7.5 7.5v36.5h-37v-365h134.73c4.143 0 7.5-3.358 7.5-7.5s-3.357-7.5-7.5-7.5h-40.73v-20h12.5c4.143 0 7.5-3.358 7.5-7.5v-50c0-4.142-3.357-7.5-7.5-7.5h-100c-4.143 0-7.5 3.358-7.5 7.5v50c0 4.142 3.357 7.5 7.5 7.5h12.5v20h-26.5c-4.143 0-7.5 3.358-7.5 7.5v62.5h-84.5c-4.143 0-7.5 3.358-7.5 7.5v253.269c0 4.142 3.357 7.5 7.5 7.5s7.5-3.358 7.5-7.5v-245.769h77v17h-52.5c-4.143 0-7.5 3.358-7.5 7.5v30c0 4.142 3.357 7.5 7.5 7.5h52.5v11h-52.5c-4.143 0-7.5 3.358-7.5 7.5v30c0 4.142 3.357 7.5 7.5 7.5h52.5v11h-52.5c-4.143 0-7.5 3.358-7.5 7.5v30c0 4.142 3.357 7.5 7.5 7.5h52.5v11h-52.5c-4.143 0-7.5 3.358-7.5 7.5v30c0 4.142 3.357 7.5 7.5 7.5h52.5v65h-77v-17.077c0-4.142-3.357-7.5-7.5-7.5s-7.5 3.358-7.5 7.5v17.077h-23c-12.958 0-23.5 10.542-23.5 23.5s10.542 23.5 23.5 23.5h465c12.958 0 23.5-10.542 23.5-23.5s-10.542-23.5-23.5-23.5zm-70-95v15h-45v-15zm0-56v15h-45v-15zm0-56v15h-45v-15zm0-56v15h-45v-15zm-251-187h85v35h-85zm20 50h45v20h-45zm-94 152v-15h45v15zm0 56v-15h45v15zm0 56v-15h45v15zm0 56v-15h45v15zm112 51h101v29h-101zm283 61h-465c-4.687 0-8.5-3.813-8.5-8.5s3.813-8.5 8.5-8.5h465c4.687 0 8.5 3.813 8.5 8.5s-3.813 8.5-8.5 8.5z"/><path d="m343.5 138.5c0-4.142-3.357-7.5-7.5-7.5h-160c-4.143 0-7.5 3.358-7.5 7.5v30c0 4.142 3.357 7.5 7.5 7.5h160c4.143 0 7.5-3.358 7.5-7.5zm-15 22.5h-145v-15h145z"/><path d="m343.5 194.5c0-4.142-3.357-7.5-7.5-7.5h-160c-4.143 0-7.5 3.358-7.5 7.5v30c0 4.142 3.357 7.5 7.5 7.5h160c4.143 0 7.5-3.358 7.5-7.5zm-15 22.5h-145v-15h145z"/><path d="m343.5 250.5c0-4.142-3.357-7.5-7.5-7.5h-160c-4.143 0-7.5 3.358-7.5 7.5v30c0 4.142 3.357 7.5 7.5 7.5h160c4.143 0 7.5-3.358 7.5-7.5zm-15 22.5h-145v-15h145z"/><path d="m343.5 306.5c0-4.142-3.357-7.5-7.5-7.5h-160c-4.143 0-7.5 3.358-7.5 7.5v30c0 4.142 3.357 7.5 7.5 7.5h160c4.143 0 7.5-3.358 7.5-7.5zm-15 22.5h-145v-15h145z"/><path d="m336 355h-160c-4.143 0-7.5 3.358-7.5 7.5v30c0 4.142 3.357 7.5 7.5 7.5h160c4.143 0 7.5-3.358 7.5-7.5v-30c0-4.142-3.357-7.5-7.5-7.5zm-7.5 30h-145v-15h145z"/></g></g></svg>