<svg id="Capa_1" enable-background="new 0 0 512 512" height="512" viewBox="0 0 512 512" width="512" xmlns="http://www.w3.org/2000/svg"><g><path d="m512 269.83c0-15.497-12.609-28.106-28.106-28.106h-49.901v-47.074c6.052-2.479 7.847-6.25 16.419-14.636 19.888-20.661 30.841-47.835 30.841-76.514v-69.174c0-10.183-8.284-18.468-18.467-18.468h-72.587c-10.183 0-18.467 8.284-18.467 18.468.571 66.285-1.403 73.105 2.146 90.833.814 4.062 4.763 6.694 8.827 5.882 4.062-.813 6.694-4.765 5.882-8.826-2.612-13.046-1.642-21.766-1.855-29.827h79.521c-.793 4.975 5.616 43.705-26.648 77.224-9.169 8.943-9.691 11.512-13.112 11.512-3.435 0-4.111-2.732-13.113-11.512-4.642-4.823-8.784-10.149-12.311-15.83-2.186-3.52-6.81-4.6-10.328-2.416-3.519 2.185-4.601 6.809-2.416 10.328 4.082 6.575 8.875 12.739 14.247 18.32 8.573 8.386 10.368 12.157 16.419 14.636v47.074h-150.663v-47.074c6.052-2.479 7.845-6.248 16.419-14.636 19.888-20.661 30.841-47.835 30.841-76.514v-69.174c0-10.183-8.284-18.468-18.467-18.468h-72.587c-10.183 0-18.467 8.284-18.467 18.468v69.174c0 28.678 10.953 55.851 30.841 76.514 8.573 8.386 10.368 12.157 16.419 14.636v47.074h-150.664v-47.074c2.508-1.027 4.802-2.567 6.745-4.586 3.642-5.204 40.516-32.34 40.516-86.563v-69.175c0-10.183-8.284-18.468-18.468-18.468h-72.587c-10.183 0-18.467 8.284-18.467 18.468.571 66.285-1.403 73.105 2.146 90.833.813 4.062 4.764 6.694 8.827 5.882 4.062-.813 6.694-4.765 5.882-8.826-2.612-13.046-1.642-21.766-1.855-29.827h79.522v11.112c0 47.455-32.561 70.838-36.324 76.161-1.879 1.952-4.997 1.952-6.876 0-7.079-7.747-14.35-13.582-21.983-25.878-2.185-3.52-6.809-4.601-10.327-2.417-3.52 2.184-4.602 6.808-2.417 10.327 8.668 13.965 17.093 20.87 23.92 28.37 1.944 2.019 4.238 3.559 6.745 4.586v47.074h-49.901c-15.497 0-28.105 12.608-28.105 28.106s12.608 28.106 28.105 28.106h59.29c-8.659 7.028-16.378 15.371-22.787 24.923l-33.133 49.383c-14.07-3.705-29.901 2.366-37.334 16.429-8.452 15.993-2.323 35.892 13.66 44.358l111.914 59.282c16.074 8.514 35.931 2.351 44.399-13.674 7.506-14.201 3.507-31.476-8.674-41.098 7.491-11.664 18.692-20.68 31.548-25.187 49.524-17.359 103.106 8.083 202.188-42.308 37.143-18.89 64.683-41.473 81.246-57.091 4.189-3.95 6.078-9.553 5.29-15.057 14.817-.769 26.632-13.063 26.632-28.065zm-125.268-192.443v-43.061c0-1.912 1.556-3.467 3.467-3.467h72.587c1.911 0 3.467 1.555 3.467 3.467v43.061zm-162.198-46.528h72.587c1.911 0 3.467 1.555 3.467 3.467v43.061h-79.521v-43.061c0-1.912 1.556-3.467 3.467-3.467zm-3.467 61.528h79.521c-.793 4.975 5.616 43.705-26.648 77.224-9.169 8.943-9.691 11.512-13.112 11.512-3.435 0-4.113-2.734-13.114-11.512-32.159-33.412-25.869-72.341-26.647-77.224zm-165.665-15v-43.061c0-1.912 1.556-3.467 3.467-3.467h72.587c1.912 0 3.468 1.555 3.468 3.467v43.061zm105.109 394.24c0 .001 0 .001 0 0-4.608 8.719-15.399 12.044-24.116 7.427l-111.914-59.28c-8.682-4.599-12.011-15.408-7.42-24.094s15.363-12.061 24.116-7.426l111.915 59.281c8.682 4.598 12.01 15.406 7.419 24.092zm309.279-169.587c-15.847 14.943-42.2 36.552-77.755 54.634-98.157 49.92-145.344 22.241-200.35 41.522-16.216 5.684-30.308 17.093-39.595 31.832l-97.141-51.455 31.774-47.357c23.155-34.511 65.842-51.087 106.218-41.245 28.692 6.993 58.697 5.851 86.772-3.304l37.841-12.338c16.488-5.378 27.579 16.278 13.668 26.122l-54.382 26.023c-.011.005-.02.012-.03.017-.018.009-.037.015-.056.024l-26.334 13.01c-3.713 1.835-5.236 6.333-3.402 10.046 1.308 2.646 3.966 4.18 6.731 4.18 3.072 0 2.65-.74 27.017-12.486 5.524 1.501 12.317 2.509 20.663 2.509 22.529-.001 56.23-7.294 105.899-31.705 18.814-9.246 39.722-14.133 60.464-14.133.16.056 1.849-.34 2.579 1.499.271.683.39 1.69-.581 2.605zm-67.662-4.104c-.471.226-.948.44-1.416.671-23.554 11.576-62.433 28.28-93.765 30.09 33.125-15.878 31.352-14.932 32.169-15.473 5.71-3.78 9.713-9.222 11.771-15.288zm81.766-15.001c-16.411 0-112.093 0-131.893 0-3.321-18.267-22.017-28.435-39.097-22.867l-37.842 12.338c-25.423 8.289-52.594 9.322-78.57 2.991-25.753-6.276-52.316-3.2-75.421 7.538h-83.31c-7.226 0-13.105-5.879-13.105-13.106 0-7.226 5.879-13.105 13.105-13.105h446.133c7.227 0 13.106 5.879 13.106 13.105 0 7.227-5.879 13.106-13.106 13.106z"/></g></svg>