<?xml version="1.0" encoding="utf-8"?>
<!-- Svg Vector Icons : http://www.onlinewebfonts.com/icon -->
<!DOCTYPE svg PUBLIC "-//W3C//DTD SVG 1.1//EN" "http://www.w3.org/Graphics/SVG/1.1/DTD/svg11.dtd">
<svg version="1.1" xmlns="http://www.w3.org/2000/svg" xmlns:xlink="http://www.w3.org/1999/xlink" x="0px" y="0px" viewBox="0 0 1000 1000" enable-background="new 0 0 1000 1000" xml:space="preserve">
<metadata> Svg Vector Icons : http://www.onlinewebfonts.com/icon </metadata>
<g><path d="M667.6,96.2c0,22.6,9.3,45,25.2,60.9c16,16,38.4,25.2,60.9,25.2c22.6,0,45-9.3,60.9-25.2c16-16,25.2-38.4,25.2-60.9c0-22.6-9.3-45-25.2-60.9c-16-16-38.4-25.2-60.9-25.2c-22.6,0-45,9.3-60.9,25.2C676.9,51.2,667.6,73.6,667.6,96.2L667.6,96.2z" fill="#7EA2A1"/><path d="M948.4,493l-8.3-132.8c-0.3-6.3-2.4-12.5-5.6-18.1l-42.4-70.9V238c0-16.3-13.6-29.9-29.9-29.9h-180c-16.3,0-29.9,13.6-29.9,29.9v52.1l-104.3,74.4l-103.2-78.5v-40.3c0-15.6-12.9-28.5-28.5-28.5H245c-15.6,0-28.5,12.9-28.5,28.5V295L56.7,378c-4.5,2.4-6.6,8-4.2,12.9l26.4,50.7c2.4,4.5,8,6.6,12.9,4.2l124.8-65v73v92.1L171,651.5h45.5V876c0,5.2,4.2,9.4,9.4,9.4h57c5.2,0,9.4-4.2,9.4-9.4V651.5h37.9h30.6V876c0,5.2,4.2,9.4,9.4,9.4h57c5.2,0,9.4-4.2,9.4-9.4V651.5h53.2l-44.8-104.6V381.2l74,56.6l13.6,19.1c3.1,4.2,9,5.2,13.2,2.1l0.7-0.3l7,5.2c4.2,3.1,10.1,2.4,13.2-1.7l29.9-39.3l55.6-39.6v175.1v111.6v310.7c0,5.2,4.2,9.4,9.4,9.4h57.7c5.2,0,9.4-4.2,9.4-9.4V699.8h88.6v280.8c0,5.2,4.2,9.4,9.4,9.4h57c5.2,0,9.4-4.2,9.4-9.4V558.4c0-1.7-0.3-3.1-1-4.5V533c4.9,2.1,10.1,3.1,15.6,3.1h2.4C932.8,534.4,949.8,515.3,948.4,493L948.4,493z" fill="#7EA2A1"/><path d="M249.9,126.1c0,21.2,8.7,42.3,23.7,57.3c15,15,36.1,23.7,57.3,23.7c21.2,0,42.3-8.7,57.3-23.7c15-15,23.7-36.1,23.7-57.3s-8.7-42.3-23.7-57.3c-15-15-36.1-23.7-57.3-23.7c-21.2,0-42.3,8.7-57.3,23.7C258.6,83.8,249.9,104.9,249.9,126.1L249.9,126.1z" fill="#7EA2A1"/><path d="M558,140.7c-19.7-45.4-75.6-34.8-75.9,17.9c-0.2,28.9,26.6,39.7,44.5,51.3c17.3,11.2,29.6,26.5,31.6,33.1c1.7-6.4,15.4-22.2,31.4-33.4c17.5-12.3,44.7-22.4,44.5-51.3C633.7,105.5,576.8,97.2,558,140.7L558,140.7z" fill="#7EA2A1"/></g>
</svg>