<?xml version="1.0" encoding="utf-8"?>
<!-- Svg Vector Icons : http://www.onlinewebfonts.com/icon -->
<!DOCTYPE svg PUBLIC "-//W3C//DTD SVG 1.1//EN" "http://www.w3.org/Graphics/SVG/1.1/DTD/svg11.dtd">
<svg version="1.1" xmlns="http://www.w3.org/2000/svg" xmlns:xlink="http://www.w3.org/1999/xlink" x="0px" y="0px" viewBox="0 0 1000 1000" enable-background="new 0 0 1000 1000" xml:space="preserve">
<metadata> Svg Vector Icons : http://www.onlinewebfonts.com/icon </metadata>
<g><g><g><circle fill="#03449E" cx="308.6" cy="333.9" r="71.5"/><circle fill="#03449E" cx="782.2" cy="158.9" r="68.8"/><path d="M42,793.2c-0.2,0-0.4,0-0.6,0c-17,0-31.3,15.9-31.3,32.9c0,18.4,10.3,34.2,24.4,37c2.2,0.4,4,0.5,4,0.6s1.8,0,4,0l186.4,0.2c5.2,0,7.8-1.1,9.8-2.7c1.8-1.3,4.2-4,5.7-5.6L346.9,742l34.5,29.1l18.3,102.6c3.3,18.5,19.4,31.5,37.6,31.5c2.2,0,4.5-0.2,6.7-0.6c20.8-3.7,34.6-23.5,30.9-44.3l-20.7-116.2c-1.6-8.8-6.1-16.7-12.9-22.5l-59.6-50.4l2.3-142.3c0.1-2.2,1.9-4,4.1-4c16.1,0.2,76.5,0.8,107.5,0.3c12.7-0.9,22.7-11.3,22.7-24.2c0-2.6-0.4-5.1-1.2-7.4c-0.7-2.1,0.3-3.7,2.5-3.7h7.7c2.2,0,4-1.8,4-4V450c0-2.2-1.8-4-4-4h-21c-2.2,0-3.3-1.6-2.4-3.7l9.8-22.3c0.9-2,1.6-5.5,1.6-7.7v-4.4c0-2.2-1.8-4-4-4h-3c-2.2,0-4.9,1.6-5.9,3.5l-15.2,27.9c-1.1,1.9-1.9,5.3-1.9,7.5v34.1c0,2.2-1.8,4-4,3.9l-62.1-1.6c-2.2-0.1-5.4-1.5-6.7-3.2l-46.2-58.5c-1.4-1.7-4.4-3.6-6.6-3.6h-131c-8,0-12.4,4.6-14,6.1L156,476.4c-1.6,1.5-3.7,4.4-4.4,6.5c-2.1,5.5-4,17.1-9,38.5c-3.8,16-19.3,74.8-22,96.4l0,0.4c0,0.4-0.1,0.8-0.1,1.2c0,12.1,10.1,21.9,22.5,21.9c11,0,20.2-7.7,22.1-17.9l0.1-0.4c4.4-20.8,28.4-92.9,33-108.2c2.1-6.2,4.8-11.3,12.6-11.4c7.9-0.1,14,0,14,0c2.2-0.2,4.1,1.7,4.2,3.9l7.3,202.3c0.1,2.2-0.9,5.5-2.2,7.3l-48.4,68.5c-1.3,1.8-4.1,3.5-6.3,3.8l-132.7,3.6C44.4,793,42.3,793.2,42,793.2z" fill="#03449E"/><path d="M988.2,424.5l-36.8-108.2c-2.1-6.2-6-11.7-11.1-15.8l-49.6-39l-26.8-21.1l-2.5-1.9c-5.9-4.7-12.9-6.9-19.9-7.2c-0.7-0.1-1.3-0.1-1.9-0.1c-0.8,0-1.8,0.1-2.9,0.2c-0.2,0-0.5,0-0.7,0.1c-1.6,0.2-3.2,0.5-4.4,0.6c-14.1,1.3-59.1,5.1-68.2,5.6c-2.9,0.2-8.2,0-15.3,1.5c-1.3,0.3-2.6,0.6-4,1c-5.4,1.6-10.5,4.5-14.7,8.8l-47.5,43.4l-23,21.1l-98.1,21.2c-18.3,4-30,22-26,40.4c3.4,15.9,17.5,26.8,33.2,26.8c2.4,0,4.8-0.2,7.2-0.8l17.6-3.8l72.6-15.7l18-3.9c6.6-1.4,12.6-4.8,17.3-9.6l24.3-22.5c-6.7,57.5-39.1,293.4-43.7,327c-0.3,2.2,1.2,4,3.5,4h16.7c2.2,0,3.9,1.8,3.7,4c-8.9,111.3-11.3,146.9-13.1,190.7c-0.1,1-0.2,2.1-0.2,3.2c0,0.1,0,0.2,0,0.3c0,0.1,0,0.1,0,0.2c0.3,18.3,15,33.1,33,33.1c16.7,0,30.5-12.8,32.7-29.1c0.3-2.2,0.5-5.8,0.8-8c3.5-25.4,22.4-165,25.9-190.5c0.3-2.2,2.3-4,4.6-4h13.4c2.2,0,4.2,1.8,4.3,4c1.9,23.2,11.6,140.9,15.7,189.1c0.2,2.2,0.3,4.6,0.2,5.4c0,0.5,0,0.9,0,1.4c0,18.5,14.7,33.6,32.9,33.6c18.2,0,32.9-15,32.9-33.6c0-0.9-0.1-1.7-0.1-2.5V680.4c0-2.2,1.8-4,4-4h29.8c2.2,0,3.5-1.7,3-3.9c-9.7-39.8-47.3-312.1-49.7-337l0,0l4,3.1l11.3,8.9l33.5,98.7c4.8,14.1,18,23,32.1,23c3.6,0,7.3-0.6,10.9-1.8C984.7,461.5,994.2,442.2,988.2,424.5z" fill="#03449E"/></g></g><g></g><g></g><g></g><g></g><g></g><g></g><g></g><g></g><g></g><g></g><g></g><g></g><g></g><g></g><g></g></g>
</svg>