<?xml version="1.0" encoding="iso-8859-1"?>
<!-- Generator: Adobe Illustrator 19.0.0, SVG Export Plug-In . SVG Version: 6.00 Build 0)  -->
<svg xmlns="http://www.w3.org/2000/svg" xmlns:xlink="http://www.w3.org/1999/xlink" version="1.1" id="Layer_1" x="0px" y="0px" viewBox="0 0 512 512" style="enable-background:new 0 0 512 512;" xml:space="preserve" width="512" height="512">
<g>
	<rect x="10" y="232" style="fill:#FFD077;" width="492" height="230"/>
	<path style="fill:#C8E7F9;" d="M287,272c-24.853,0-45,22.386-45,50v96h90v-96C332,294.386,311.853,272,287,272z"/>
	<path style="fill:#C8E7F9;" d="M417,272c-24.853,0-45,22.386-45,50v96h90v-96C462,294.386,441.853,272,417,272z"/>
	<polygon style="fill:#FC5B5B;" points="10,192 256,10 502,192  "/>
	<rect x="10" y="192" style="fill:#F0F0F0;" width="492" height="40"/>
	<rect x="190" y="462" style="fill:#F0F0F0;" width="312" height="40"/>
	<path style="fill:#A64C2C;" d="M10,502V352c0-44.183,35.817-80,80-80h15v230H10z"/>
	<path style="fill:#A64C2C;" d="M105,502V272h15c44.183,0,80,35.817,80,80v150H105z"/>
	<rect x="106" y="58" style="fill:#F0F0F0;" width="300" height="134"/>
	<path style="fill:#B3D7FC;" d="M201.167,131.993c3.644-6.312,8.754-11.245,14.646-14.638l-30.627-17.682   c-4.783-2.761-10.899-1.123-13.66,3.66l-10,17.321c-2.761,4.783-1.123,10.899,3.66,13.66l30.627,17.682   C195.806,145.197,197.523,138.305,201.167,131.993z"/>
	<path style="fill:#FA9C5F;" d="M310.833,131.993c-3.644-6.312-8.754-11.245-14.646-14.638l30.627-17.682   c4.783-2.761,10.899-1.123,13.66,3.66l10,17.321c2.761,4.783,1.123,10.899-3.66,13.66l-30.627,17.682   C316.194,145.197,314.477,138.305,310.833,131.993z"/>
	<g>
		<path d="M372,428h90c5.523,0,10-4.477,10-10v-96c0-33.084-24.673-60-55-60s-55,26.916-55,60v96C362,423.523,366.477,428,372,428z     M382,346.651c2.986-1.73,5-4.952,5-8.651s-2.014-6.922-5-8.651V322c0-6.776,1.487-13.16,4.099-18.758l6.829,6.83    c1.953,1.953,4.512,2.929,7.071,2.929s5.119-0.976,7.071-2.929c3.905-3.905,3.905-10.237,0-14.143l-8.16-8.16    C404.193,284.109,410.385,282,417,282c6.602,0,12.782,2.102,18.058,5.748l-7.583,8.667c-3.637,4.156-3.215,10.474,0.941,14.111    c1.897,1.66,4.244,2.474,6.581,2.474c2.783,0,5.553-1.156,7.53-3.415l5.434-6.211c2.575,5.567,4.04,11.903,4.04,18.626v7.349    c-2.986,1.73-5,4.952-5,8.651s2.014,6.922,5,8.651V408h-25v-30c0-5.51-4.49-10-10-10c-5.51,0-10,4.49-10,10v30h-25V346.651z"/>
		<path d="M417,348c5.51,0,10-4.49,10-10c0-5.51-4.49-10-10-10c-5.51,0-10,4.49-10,10C407,343.51,411.49,348,417,348z"/>
		<path d="M242,428h90c5.523,0,10-4.477,10-10v-96c0-33.084-24.673-60-55-60s-55,26.916-55,60v96C232,423.523,236.477,428,242,428z     M252,346.651c2.986-1.73,5-4.952,5-8.651s-2.014-6.922-5-8.651V322c0-6.776,1.487-13.16,4.099-18.758l6.829,6.83    c1.953,1.953,4.512,2.929,7.071,2.929s5.119-0.976,7.071-2.929c3.905-3.905,3.905-10.237,0-14.143l-8.16-8.16    C274.193,284.109,280.385,282,287,282c6.602,0,12.782,2.102,18.058,5.748l-7.583,8.667c-3.637,4.156-3.215,10.474,0.941,14.111    c1.897,1.66,4.244,2.474,6.581,2.474c2.783,0,5.553-1.156,7.53-3.415l5.434-6.211c2.575,5.567,4.04,11.903,4.04,18.626v7.349    c-2.986,1.73-5,4.952-5,8.651s2.014,6.922,5,8.651V408h-25v-30c0-5.51-4.49-10-10-10c-5.51,0-10,4.49-10,10v30h-25V346.651z"/>
		<path d="M287,348c5.51,0,10-4.49,10-10c0-5.51-4.49-10-10-10c-5.51,0-10,4.49-10,10C277,343.51,281.49,348,287,348z"/>
		<path d="M156,387h-11c-5.523,0-10,4.477-10,10s4.477,10,10,10h11c5.523,0,10-4.477,10-10S161.523,387,156,387z"/>
		<path d="M65,387H54c-5.523,0-10,4.477-10,10s4.477,10,10,10h11c5.523,0,10-4.477,10-10S70.523,387,65,387z"/>
		<path d="M512,191.996c-0.072-3.118-1.5-6.149-4.052-8.035L416,115.934V58c0-5.523-4.477-10-10-10h-81.823L261.948,1.961    c-3.534-2.614-8.361-2.614-11.896,0L187.824,48H106c-5.523,0-10,4.477-10,10v57.935c0,0-91.902,67.993-91.948,68.026    C1.545,185.816,0.001,188.877,0,192v310c0,5.523,4.477,10,10,10h492c5.523,0,10-4.477,10-10C512,502,512,192.007,512,191.996z     M416,140.813L471.67,182H416V140.813z M256,22.439L290.549,48h-69.098L256,22.439z M116,68h280v114h-79.792    c3.777-5.039,6.601-10.799,8.28-17.065c0.617-2.304,1.046-4.626,1.33-6.952l25.996-15.009c9.55-5.515,12.833-17.771,7.32-27.32    l-10-17.321c-2.671-4.626-6.984-7.936-12.144-9.318c-5.16-1.382-10.549-0.673-15.176,1.998l-25.992,15.006    c-2.157-0.916-4.385-1.705-6.689-2.322c-11.15-2.987-22.726-2.06-33.132,2.557c-10.405-4.617-21.983-5.546-33.133-2.557    c-2.304,0.617-4.532,1.404-6.689,2.322l-25.992-15.006c-4.626-2.671-10.017-3.38-15.176-1.998    c-5.16,1.383-9.473,4.692-12.144,9.318l-10,17.321c-5.514,9.55-2.23,21.806,7.32,27.32l25.991,15.006    c0.283,2.327,0.717,4.65,1.335,6.955c1.679,6.266,4.503,12.026,8.28,17.065H116V68z M313.616,118.839l18.197-10.506l10,17.321    l-18.197,10.506c-1.059-3.175-2.438-6.248-4.124-9.167C317.808,124.075,315.836,121.344,313.616,118.839z M284.104,139.052    c-1.679-6.265-4.502-12.023-8.277-17.062c0.106-0.001,0.21-0.01,0.316-0.01c2.605,0,5.229,0.343,7.813,1.035    c7.74,2.074,14.209,7.038,18.216,13.978c4.007,6.94,5.071,15.024,2.997,22.765c-2.074,7.74-7.038,14.209-13.978,18.216    c-4.69,2.707-9.902,4.066-15.177,4.026h-0.22c1.191-1.594,2.305-3.257,3.315-5.007    C285.787,165.427,287.562,151.953,284.104,139.052z M261.789,166.993c-1.573,2.724-3.53,5.138-5.789,7.198    c-2.26-2.06-4.216-4.474-5.789-7.198c-4.007-6.939-5.071-15.024-2.997-22.764c1.511-5.639,4.561-10.597,8.786-14.426    c4.225,3.829,7.275,8.788,8.786,14.426C266.86,151.969,265.796,160.054,261.789,166.993z M232.891,176.993    c1.01,1.75,2.125,3.413,3.315,5.007h-0.205c-5.28,0.043-10.499-1.316-15.192-4.026c-6.94-4.007-11.904-10.476-13.978-18.216    c-2.074-7.74-1.01-15.825,2.997-22.765c4.007-6.939,10.476-11.903,18.216-13.978c2.584-0.692,5.207-1.035,7.813-1.035    c0.106,0,0.21,0.009,0.316,0.01c-3.776,5.038-6.599,10.797-8.277,17.062C224.438,151.953,226.213,165.427,232.891,176.993z     M198.384,118.839c-2.22,2.505-4.191,5.236-5.876,8.154c-1.685,2.919-3.064,5.992-4.124,9.167l-18.197-10.506l10-17.321    L198.384,118.839z M96,140.813V182H40.33L96,140.813z M95,492H20V352c0-38.598,31.402-70,70-70h5V492z M190,492h-75V282h5    c38.598,0,70,31.402,70,70V492z M492,492H210v-20h282V492z M492,452H210V352c0-49.626-40.374-90-90-90H90    c-28.245,0-53.487,13.082-70,33.501V242h472V452z M492,222H20v-20h472V222z"/>
	</g>
</g>















</svg>
