<?xml version="1.0" encoding="iso-8859-1"?>
<!-- Generator: Adobe Illustrator 19.0.0, SVG Export Plug-In . SVG Version: 6.00 Build 0)  -->
<svg version="1.1" id="Capa_1" xmlns="http://www.w3.org/2000/svg" xmlns:xlink="http://www.w3.org/1999/xlink" x="0px" y="0px"
	 viewBox="0 0 512 512" style="enable-background:new 0 0 512 512;" xml:space="preserve">
<g>
	<g>
		<path d="M293.206,0C276.728,0,264.511,7.529,256,17.007C247.489,7.529,235.272,0,218.793,0c-29.282,0-52.222,24.331-52.222,55.4
			c0,32.607,25.342,54.994,60.425,84.584c6.021,5.098,12.437,10.503,19.175,16.348c2.827,2.446,6.328,3.662,9.829,3.662
			s7.002-1.216,9.829-3.662c6.724-5.83,13.14-11.25,19.16-16.333c28.181-23.768,60.439-49.448,60.439-84.599
			C345.428,24.331,322.489,0,293.206,0z" fill="#03449E"/>
	</g>
</g>
<g>
	<g>
		<path d="M346,181c-91.128,0-165,74.872-165,166c0,91.126,73.872,165,165,165s166-73.874,166-165C512,255.872,437.128,181,346,181z
			 M346,452c-57.891,0-105-47.109-105-105s47.109-106,105-106s106,48.109,106,106S403.891,452,346,452z" fill="#03449E"/>
	</g>
</g>
<g>
	<g>
		<path d="M181.024,450.48c-4.949,0.718-9.879,1.52-15.024,1.52c-57.891,0-106-47.109-106-105s48.109-106,106-106
			c5.145,0,10.074,0.802,15.024,1.52c12.081-19.189,27.354-36.11,45.156-50.035C207.516,185.16,187.262,181,166,181
			C74.872,181,0,255.872,0,347c0,91.126,74.872,165,166,165c21.26,0,41.514-4.162,60.178-11.486
			C208.378,486.589,193.105,469.67,181.024,450.48z" fill="#03449E"/>
	</g>
</g>
<g>
	<g>
		<path d="M315.925,277.398C289.525,289.021,271,316.354,271,347c0,30.645,18.525,56.979,44.925,68.602
			C325.51,394.69,331,371.51,331,347S325.51,298.31,315.925,277.398z" fill="#03449E"/>
	</g>
</g>
<g>
</g>
<g>
</g>
<g>
</g>
<g>
</g>
<g>
</g>
<g>
</g>
<g>
</g>
<g>
</g>
<g>
</g>
<g>
</g>
<g>
</g>
<g>
</g>
<g>
</g>
<g>
</g>
<g>
</g>
</svg>
